# xmcd
#
# Track frame offsets:
#	150
#	13937
#	29690
#	54007
#	68005
#	89320
#	109985
#	136557
#	153775
#
# Disc length: 2342 seconds
#
# Revision: 1
# Processed by: cddbd v1.5.2PL0 Copyright (c) Steve Scherf et al.
# Submitted via: EasyCDDAExtractor 2010.6.0.0
#
DISCID=67092409
DTITLE=Mr. Clarence Carter - In Person
DYEAR=1900
DGENRE=
TTITLE0=Can We Slip Away Again
TTITLE1=Use Me Anyway You Can
TTITLE2=Tell Daddy
TTITLE3=Those Were The Good Old Days
TTITLE4=In Person
TTITLE5=Try A Piece Of My Love
TTITLE6=I Love You
TTITLE7=If I Were Your
TTITLE8=It's A Monster Thang
EXTD=
EXTT0=
EXTT1=
EXTT2=
EXTT3=
EXTT4=
EXTT5=
EXTT6=
EXTT7=
EXTT8=
PLAYORDER=
